<svg width="100%" height="100%" style="overflow:visible;" preserveAspectRatio="none" viewBox="0 0 30.54 30.54" fill="none" xmlns="http://www.w3.org/2000/svg">
<path d="M14.8915 29.8915C23.1159 29.8915 29.7831 23.2243 29.7831 14.9999C29.7831 6.77556 23.1159 0.108398 14.8915 0.108398C6.66716 0.108398 0 6.77556 0 14.9999C0 23.2243 6.66716 29.8915 14.8915 29.8915Z" fill="#050505" stroke="black" stroke-width="0.755906" stroke-miterlimit="22.9256" stroke-linecap="round" stroke-linejoin="round"/>
<path fill-rule="evenodd" clip-rule="evenodd" d="M4.09436 10.2769H13.1466V13.4516H10.1554V19.7227H6.84942V13.4516H4.09436V10.2769Z" fill="white"/>
<path fill-rule="evenodd" clip-rule="evenodd" d="M17.0038 19.7227H14.9972H13.6715L11.5924 10.2769H15.0943L15.9647 15.0018L16.0005 15.1644L17.0763 10.2769H18.6405H20.2048L21.2806 15.1644L21.3163 15.0018L22.1868 10.2769H25.6887L23.6095 19.7227H22.2839H20.2772H19.7125L18.6405 14.8524L17.5685 19.7227H17.0038Z" fill="white"/>
<path fill-rule="evenodd" clip-rule="evenodd" d="M13.6715 19.7227L11.5924 10.2769H15.4894L17.5685 19.7227H13.6715Z" fill="url(#paint0_linear_109_8561)"/>
<defs>
<linearGradient id="paint0_linear_109_8561" x1="21.2511" y1="21.6153" x2="9.80474" y2="14.9253" gradientUnits="userSpaceOnUse">
<stop stop-color="#A658D7"/>
<stop offset="0.219608" stop-color="#5E6FF7"/>
<stop offset="1" stop-color="#67E4B9"/>
</linearGradient>
</defs>
</svg>
