<svg width="100%" height="100%" style="overflow:visible;" preserveAspectRatio="none" viewBox="0 0 139.82 18.98" fill="none" xmlns="http://www.w3.org/2000/svg">
<path fill-rule="evenodd" clip-rule="evenodd" d="M123.804 7.29891C123.962 6.8432 124.552 5.98533 124.871 5.48531C125.056 5.19442 125.272 4.89786 125.443 4.62435L126.089 3.75258C126.098 5.67795 126.182 10.5256 126.03 11.6982C124.392 8.8976 123.786 8.83167 120.684 7.61324C119.703 7.22822 119.068 7.12417 119.566 6.0998C121.652 5.46239 122.494 6.72576 123.804 7.29891ZM82.3152 19.069L89.6522 19.0698C90.0539 18.9534 90.6227 15.3955 90.7915 14.5976C91.0208 13.5102 91.393 10.9435 91.7974 10.1201L93.6761 19.0696L101.205 19.0656L104.622 3.48512L104.624 19.0712L111.356 19.0403L111.379 16.9201C111.898 17.2167 112.31 17.6439 112.997 18.0364C116.399 19.982 122.119 20.3089 125.062 16.91C125.426 16.4904 125.709 15.8012 126.092 15.3003L126.089 19.0694L140.588 19.05L140.608 13.8907L132.822 13.8966L132.863 12.6255L139.568 12.5878L139.552 7.43271L132.817 7.43528L132.891 6.17127L140.05 6.19561L140.171 0.931856L126.07 0.93173L126.085 3.25912C125.6 2.9757 125.233 2.51264 124.708 2.15144C121.273 -0.209952 115.764 -0.172864 112.954 3.21959C111.295 5.22339 111.588 8.35316 113.176 10.0851C114.155 11.1512 116.176 11.9237 117.64 12.5292C118.334 12.8166 118.804 12.8387 118.717 13.7525C117.176 14.972 114.355 13.1926 113.404 12.4954C112.708 13.0504 112.102 14.8167 111.361 15.4735L111.388 0.93173L98.0484 0.939068L96.6318 10.6744L94.8322 0.929542L88.7456 0.979246L86.8358 10.6772L85.4773 0.93173L78.4199 0.93366L82.3152 19.069Z" fill="#7D7FFF"/>
<path fill-rule="evenodd" clip-rule="evenodd" d="M0.834206 6.94321L5.73559 6.94398L5.72285 19.0694L12.5339 19.0142L12.5036 6.94321L17.212 6.9463V0.938772C13.8884 1.01719 2.75327 0.912117 0.783081 0.923191L0.834206 6.94321ZM17.2098 19.0707C17.2137 7.68248 17.2126 19.0707 17.2098 19.0707Z" fill="#7D7FFF"/>
<path fill-rule="evenodd" clip-rule="evenodd" d="M64.4556 6.26543C64.675 5.92393 64.829 5.66729 65.0671 5.34614V2.26763C64.1921 1.92033 63.9104 1.3876 62.0423 0.873038C58.8028 -0.0195987 54.4756 0.740535 52.6665 3.69543C51.3268 5.88388 51.6853 8.47372 53.3617 10.1311C55.4561 12.2021 58.7147 12.4201 58.8306 13.3099C58.4339 15.3465 54.213 13.2087 53.5281 12.4691C53.0645 12.8028 51.3963 15.5433 50.9937 16.3346C52.2947 18.0253 54.7516 19.1514 57.5978 19.4179C65.703 20.1766 68.0301 13.5805 65.3091 10.2824C63.4902 8.07827 59.4845 7.6219 59.3955 6.68342C59.6394 5.69665 60.6802 5.77765 61.7001 6.11001C62.7008 6.43593 62.9962 6.85172 63.7234 7.26482L64.4556 6.26543ZM65.0671 0.928023H65.0195L65.0671 2.26763V0.928023Z" fill="#7D7FFF"/>
<path fill-rule="evenodd" clip-rule="evenodd" d="M44.5702 0.926641C44.5912 3.27104 44.6476 5.61775 44.6476 7.97978C44.6476 10.2191 45.1146 12.9579 42.5467 12.9038C40.1069 12.8525 40.5859 10.0594 40.5859 7.83607C40.5859 5.52052 40.6475 3.22146 40.669 0.922523L33.7633 0.923296C33.7656 4.24158 33.4273 11.4835 34.4101 14.1018C37.0939 21.252 48.123 21.3621 50.8653 13.992C51.7723 11.5539 51.4751 4.07714 51.4776 0.921875L44.5702 0.926641Z" fill="#7D7FFF"/>
<path fill-rule="evenodd" clip-rule="evenodd" d="M23.9574 5.65021C24.9963 5.65021 26.4149 5.75709 26.2381 7.22649C26.0805 8.53441 24.6615 8.43139 23.9615 8.44118L23.9578 6.3954L23.9574 5.65021ZM17.212 6.94628H17.2138L17.212 12.4023V19.0707L23.9627 19.0667L23.9574 13.1426C24.5191 13.3346 24.3365 13.4461 24.9124 14.528L27.2547 19.0721L35.052 19.0655C34.5578 17.9936 33.5878 16.6753 32.9229 15.5872C32.2891 14.5503 31.2413 13.1802 30.7453 12.157L31.1629 11.7159C33.4138 9.41442 33.5655 6.05326 32.1392 3.70075C29.8541 -0.0688754 22.5524 0.42573 18.0425 0.901924C17.898 0.917247 17.6106 0.929356 17.212 0.938757V6.94628Z" fill="#7D7FFF"/>
<path fill-rule="evenodd" clip-rule="evenodd" d="M65.158 6.94493L70.0312 6.9685L70.0211 19.0738L76.8076 19.0446L76.7853 6.94352L81.698 6.9318L81.7279 0.922852L65.0194 0.928259L65.0671 2.26786C65.0671 3.99493 65.1169 5.31534 65.158 6.94493Z" fill="#7D7FFF"/>
</svg>
