<svg width="100%" height="100%" style="overflow:visible;" preserveAspectRatio="none" viewBox="0 0 635 992.52" fill="none" xmlns="http://www.w3.org/2000/svg">
<path opacity="0.1" d="M188.718 153.867L179.001 140.342L192.377 130.517C194.06 129.28 194.438 126.866 193.216 125.164C191.993 123.462 189.606 123.08 187.923 124.316L174.547 134.141L164.83 120.616C163.608 118.914 161.221 118.531 159.537 119.768C157.854 121.004 157.476 123.418 158.699 125.12L168.415 138.645L155.039 148.471C153.356 149.707 152.978 152.121 154.201 153.823C155.423 155.525 157.81 155.908 159.494 154.671L172.869 144.846L182.586 158.372C183.809 160.074 186.196 160.456 187.879 159.22C189.588 157.987 189.962 155.6 188.718 153.867Z" fill="#5D5FFF"/>
<path opacity="0.1" d="M520.873 211.054L517.036 205.712L522.319 201.832C522.983 201.343 523.133 200.39 522.65 199.718C522.167 199.045 521.224 198.894 520.559 199.383L515.276 203.263L511.439 197.921C510.956 197.249 510.013 197.098 509.348 197.586C508.683 198.075 508.534 199.028 509.017 199.7L512.855 205.042L507.572 208.923C506.907 209.411 506.757 210.365 507.24 211.037C507.723 211.709 508.666 211.86 509.331 211.372L514.614 207.491L518.451 212.833C518.934 213.505 519.877 213.657 520.542 213.168C521.217 212.682 521.365 211.739 520.873 211.054Z" fill="white"/>
<path opacity="0.1" d="M497.413 176.994L495.438 174.245L498.157 172.248C498.499 171.996 498.576 171.506 498.328 171.16C498.079 170.814 497.594 170.736 497.252 170.987L494.533 172.984L492.558 170.235C492.309 169.889 491.824 169.811 491.482 170.063C491.14 170.314 491.063 170.805 491.312 171.151L493.287 173.9L490.568 175.897C490.226 176.148 490.149 176.639 490.397 176.985C490.646 177.331 491.131 177.408 491.473 177.157L494.192 175.16L496.167 177.909C496.415 178.255 496.901 178.333 497.243 178.082C497.59 177.831 497.666 177.346 497.413 176.994Z" fill="white"/>
<path opacity="0.1" d="M108.081 205.224H166.972V264.775H108.081V205.224Z" stroke="#5D5FFF" stroke-width="2" stroke-miterlimit="10"/>
<path opacity="0.1" d="M78.6347 175.448H137.527V234.999H78.6347V175.448Z" fill="#2DD4BF"/>
<path opacity="0.1" d="M536.798 596.644L461.253 662.3C443.321 641.202 445.698 609.402 466.561 591.27C487.425 573.138 518.867 575.547 536.798 596.644Z" fill="white"/>
<path d="M612.861 0.885254H608.423V19.2668H612.861V0.885254Z" fill="#8AE2BD" fill-opacity="0.31"/>
<path d="M624.136 0.885254H619.697V19.2668H624.136V0.885254Z" fill="#8AE2BD" fill-opacity="0.31"/>
<path d="M635.41 0.885254H630.972V19.2668H635.41V0.885254Z" fill="#8AE2BD" fill-opacity="0.31"/>
<path d="M612.861 27.0638H608.423V45.4454H612.861V27.0638Z" fill="#8AE2BD" fill-opacity="0.31"/>
<path d="M624.136 27.0638H619.697V45.4454H624.136V27.0638Z" fill="#8AE2BD" fill-opacity="0.31"/>
<path d="M624.136 53.2343H619.697V71.6158H624.136V53.2343Z" fill="#8AE2BD" fill-opacity="0.31"/>
<path d="M635.41 53.2343H630.972V71.6158H635.41V53.2343Z" fill="#8AE2BD" fill-opacity="0.31"/>
<path d="M612.861 79.413H608.423V97.7945H612.861V79.413Z" fill="#8AE2BD" fill-opacity="0.31"/>
<path d="M635.41 79.413H630.972V97.7945H635.41V79.413Z" fill="#8AE2BD" fill-opacity="0.31"/>
<path d="M612.861 105.592H608.423V123.973H612.861V105.592Z" fill="#8AE2BD" fill-opacity="0.31"/>
<path d="M624.136 105.592H619.697V123.973H624.136V105.592Z" fill="#8AE2BD" fill-opacity="0.31"/>
<path d="M612.861 131.771H608.423V150.152H612.861V131.771Z" fill="#8AE2BD" fill-opacity="0.31"/>
<path d="M624.136 131.771H619.697V150.152H624.136V131.771Z" fill="#8AE2BD" fill-opacity="0.31"/>
<path d="M635.41 131.771H630.972V150.152H635.41V131.771Z" fill="#8AE2BD" fill-opacity="0.31"/>
<path d="M81.215 914.98C79.4294 914.98 77.9745 913.509 77.9745 911.703C77.9745 909.897 79.4294 908.426 81.215 908.426C83.0005 908.426 84.4554 909.897 84.4554 911.703C84.4554 913.52 83.0005 914.98 81.215 914.98ZM84.4554 931.308C84.4554 929.502 83.0005 928.031 81.215 928.031C79.4294 928.031 77.9745 929.502 77.9745 931.308C77.9745 933.113 79.4294 934.585 81.215 934.585C83.0005 934.585 84.4554 933.124 84.4554 931.308ZM84.4554 950.913C84.4554 949.107 83.0005 947.636 81.215 947.636C79.4294 947.636 77.9745 949.107 77.9745 950.913C77.9745 952.718 79.4294 954.189 81.215 954.189C83.0005 954.2 84.4554 952.729 84.4554 950.913ZM84.4554 970.528C84.4554 968.723 83.0005 967.252 81.215 967.252C79.4294 967.252 77.9745 968.723 77.9745 970.528C77.9745 972.334 79.4294 973.805 81.215 973.805C83.0005 973.805 84.4554 972.334 84.4554 970.528ZM84.4554 990.133C84.4554 988.328 83.0005 986.856 81.215 986.856C79.4294 986.856 77.9745 988.328 77.9745 990.133C77.9745 991.939 79.4294 993.41 81.215 993.41C83.0005 993.41 84.4554 991.939 84.4554 990.133ZM65.0678 911.703C65.0678 909.897 63.6129 908.426 61.8273 908.426C60.0418 908.426 58.5869 909.897 58.5869 911.703C58.5869 913.509 60.0418 914.98 61.8273 914.98C63.6129 914.98 65.0678 913.52 65.0678 911.703ZM65.0678 931.308C65.0678 929.502 63.6129 928.031 61.8273 928.031C60.0418 928.031 58.5869 929.502 58.5869 931.308C58.5869 933.113 60.0418 934.585 61.8273 934.585C63.6129 934.585 65.0678 933.124 65.0678 931.308ZM65.0678 950.913C65.0678 949.107 63.6129 947.636 61.8273 947.636C60.0418 947.636 58.5869 949.107 58.5869 950.913C58.5869 952.718 60.0418 954.189 61.8273 954.189C63.6129 954.2 65.0678 952.729 65.0678 950.913ZM65.0678 970.528C65.0678 968.723 63.6129 967.252 61.8273 967.252C60.0418 967.252 58.5869 968.723 58.5869 970.528C58.5869 972.334 60.0418 973.805 61.8273 973.805C63.6129 973.805 65.0678 972.334 65.0678 970.528ZM65.0678 990.133C65.0678 988.328 63.6129 986.856 61.8273 986.856C60.0418 986.856 58.5869 988.328 58.5869 990.133C58.5869 991.939 60.0418 993.41 61.8273 993.41C63.6129 993.41 65.0678 991.939 65.0678 990.133ZM45.6692 911.703C45.6692 909.897 44.2143 908.426 42.4288 908.426C40.6432 908.426 39.1883 909.897 39.1883 911.703C39.1883 913.509 40.6432 914.98 42.4288 914.98C44.2253 914.98 45.6692 913.52 45.6692 911.703ZM45.6692 931.308C45.6692 929.502 44.2143 928.031 42.4288 928.031C40.6432 928.031 39.1883 929.502 39.1883 931.308C39.1883 933.113 40.6432 934.585 42.4288 934.585C44.2253 934.585 45.6692 933.124 45.6692 931.308ZM45.6692 950.913C45.6692 949.107 44.2143 947.636 42.4288 947.636C40.6432 947.636 39.1883 949.107 39.1883 950.913C39.1883 952.718 40.6432 954.189 42.4288 954.189C44.2253 954.2 45.6692 952.729 45.6692 950.913ZM45.6692 970.528C45.6692 968.723 44.2143 967.252 42.4288 967.252C40.6432 967.252 39.1883 968.723 39.1883 970.528C39.1883 972.334 40.6432 973.805 42.4288 973.805C44.2253 973.805 45.6692 972.334 45.6692 970.528ZM45.6692 990.133C45.6692 988.328 44.2143 986.856 42.4288 986.856C40.6432 986.856 39.1883 988.328 39.1883 990.133C39.1883 991.939 40.6432 993.41 42.4288 993.41C44.2253 993.41 45.6692 991.939 45.6692 990.133ZM26.2816 911.703C26.2816 909.897 24.8267 908.426 23.0411 908.426C21.2556 908.426 19.8008 909.897 19.8008 911.703C19.8008 913.509 21.2556 914.98 23.0411 914.98C24.8377 914.98 26.2816 913.52 26.2816 911.703ZM26.2816 931.308C26.2816 929.502 24.8267 928.031 23.0411 928.031C21.2556 928.031 19.8008 929.502 19.8008 931.308C19.8008 933.113 21.2556 934.585 23.0411 934.585C24.8377 934.585 26.2816 933.124 26.2816 931.308ZM26.2816 950.913C26.2816 949.107 24.8267 947.636 23.0411 947.636C21.2556 947.636 19.8008 949.107 19.8008 950.913C19.8008 952.718 21.2556 954.189 23.0411 954.189C24.8377 954.2 26.2816 952.729 26.2816 950.913ZM26.2816 970.528C26.2816 968.723 24.8267 967.252 23.0411 967.252C21.2556 967.252 19.8008 968.723 19.8008 970.528C19.8008 972.334 21.2556 973.805 23.0411 973.805C24.8377 973.805 26.2816 972.334 26.2816 970.528ZM26.2816 990.133C26.2816 988.328 24.8267 986.856 23.0411 986.856C21.2556 986.856 19.8008 988.328 19.8008 990.133C19.8008 991.939 21.2556 993.41 23.0411 993.41C24.8377 993.41 26.2816 991.939 26.2816 990.133ZM6.89405 911.703C6.89405 909.897 5.43915 908.426 3.6536 908.426C1.86805 908.426 0.413147 909.897 0.413147 911.703C0.413147 913.509 1.86805 914.98 3.6536 914.98C5.43915 914.98 6.89405 913.52 6.89405 911.703ZM6.89405 931.308C6.89405 929.502 5.43915 928.031 3.6536 928.031C1.86805 928.031 0.413147 929.502 0.413147 931.308C0.413147 933.113 1.86805 934.585 3.6536 934.585C5.43915 934.585 6.89405 933.124 6.89405 931.308ZM6.89405 950.913C6.89405 949.107 5.43915 947.636 3.6536 947.636C1.86805 947.636 0.413147 949.107 0.413147 950.913C0.413147 952.718 1.86805 954.189 3.6536 954.189C5.43915 954.189 6.89405 952.729 6.89405 950.913ZM6.89405 970.528C6.89405 968.723 5.43915 967.252 3.6536 967.252C1.86805 967.252 0.413147 968.723 0.413147 970.528C0.413147 972.334 1.86805 973.805 3.6536 973.805C5.43915 973.805 6.89405 972.334 6.89405 970.528ZM6.89405 990.133C6.89405 988.328 5.43915 986.856 3.6536 986.856C1.86805 986.856 0.413147 988.328 0.413147 990.133C0.413147 991.939 1.86805 993.41 3.6536 993.41C5.43915 993.41 6.89405 991.939 6.89405 990.133Z" fill="#8AE2BD" fill-opacity="0.22"/>
</svg>
