<svg width="100%" height="100%" style="overflow:visible;" preserveAspectRatio="none" viewBox="0 0 28 28" fill="none" xmlns="http://www.w3.org/2000/svg">
<g clip-path="url(#clip0_107_8520)">
<path d="M20.5333 6.53335H22.4M8.40002 0.93335H19.6C21.5803 0.93335 23.4795 1.72001 24.8797 3.12029C26.28 4.52056 27.0667 6.41973 27.0667 8.40002V19.6C27.0667 21.5803 26.28 23.4795 24.8797 24.8797C23.4795 26.28 21.5803 27.0667 19.6 27.0667H8.40002C6.41973 27.0667 4.52056 26.28 3.12029 24.8797C1.72001 23.4795 0.93335 21.5803 0.93335 19.6V8.40002C0.93335 6.41973 1.72001 4.52056 3.12029 3.12029C4.52056 1.72001 6.41973 0.93335 8.40002 0.93335ZM14 19.6C12.5148 19.6 11.0904 19.01 10.0402 17.9598C8.99001 16.9096 8.40002 15.4852 8.40002 14C8.40002 12.5148 8.99001 11.0904 10.0402 10.0402C11.0904 8.99001 12.5148 8.40002 14 8.40002C15.4852 8.40002 16.9096 8.99001 17.9598 10.0402C19.01 11.0904 19.6 12.5148 19.6 14C19.6 15.4852 19.01 16.9096 17.9598 17.9598C16.9096 19.01 15.4852 19.6 14 19.6Z" stroke="#8AE2BD" stroke-width="4"/>
</g>
<defs>
<clipPath id="clip0_107_8520">
<rect width="28" height="28" fill="white"/>
</clipPath>
</defs>
</svg>
