<svg width="100%" height="100%" style="overflow:visible;" preserveAspectRatio="none" viewBox="0 0 28 28" fill="none" xmlns="http://www.w3.org/2000/svg">
<g clip-path="url(#clip0_6_10189)">
<path d="M20.5333 6.53332H22.4M8.39999 0.933319H19.6C21.5803 0.933319 23.4794 1.71998 24.8797 3.12026C26.28 4.52053 27.0667 6.4197 27.0667 8.39999V19.6C27.0667 21.5803 26.28 23.4794 24.8797 24.8797C23.4794 26.28 21.5803 27.0667 19.6 27.0667H8.39999C6.4197 27.0667 4.52053 26.28 3.12026 24.8797C1.71998 23.4794 0.933319 21.5803 0.933319 19.6V8.39999C0.933319 6.4197 1.71998 4.52053 3.12026 3.12026C4.52053 1.71998 6.4197 0.933319 8.39999 0.933319ZM14 19.6C12.5148 19.6 11.0904 19.01 10.0402 17.9598C8.98998 16.9096 8.39999 15.4852 8.39999 14C8.39999 12.5148 8.98998 11.0904 10.0402 10.0402C11.0904 8.98998 12.5148 8.39999 14 8.39999C15.4852 8.39999 16.9096 8.98998 17.9598 10.0402C19.01 11.0904 19.6 12.5148 19.6 14C19.6 15.4852 19.01 16.9096 17.9598 17.9598C16.9096 19.01 15.4852 19.6 14 19.6Z" stroke="#8AE2BD" stroke-width="4"/>
</g>
<defs>
<clipPath id="clip0_6_10189">
<rect width="28" height="28" fill="white"/>
</clipPath>
</defs>
</svg>
